<svg width="191" height="249" viewBox="0 0 191 249" fill="none" xmlns="http://www.w3.org/2000/svg">
<path d="M188.472 89.746C183.207 84.7675 165.126 69.271 141.8 66.4416C124.348 64.3358 103.959 69.3142 83.8099 91.1067C67.6464 108.58 52.4024 116.862 38.4968 115.739C24.301 114.584 14.8611 103.677 10.4955 97.2729C10.1891 96.8151 9.75496 96.4757 9.25682 96.3046C8.75868 96.1335 8.22295 96.1398 7.72837 96.3226C7.22338 96.4939 6.78275 96.8363 6.47155 97.2991C6.16035 97.7619 5.99504 98.3206 6.00011 98.8928V179.518C6.00113 180.03 6.13583 180.53 6.38863 180.962C6.64142 181.394 7.00202 181.739 7.42881 181.959C12.8729 184.745 32.4825 194 52.2224 194C63.8003 194 75.4382 190.814 84.2694 181.257C84.3591 181.16 84.4391 181.073 84.5289 180.987C100.173 164.529 134.657 167.909 159.821 173.287C170.23 175.512 179.042 178.071 184.266 179.713C184.935 179.922 185.639 179.96 186.324 179.823C187.009 179.687 187.655 179.381 188.211 178.928C188.767 178.476 189.218 177.889 189.529 177.216C189.839 176.543 190.001 175.8 190 175.048V93.4068C190 92.7143 189.864 92.0296 189.601 91.3983C189.337 90.7671 188.952 90.2038 188.472 89.746V89.746Z" fill="#FFEF63"/>
<path d="M188.617 22.34C183.347 17.73 165.247 3.38001 141.897 0.760008C124.427 -1.18999 104.017 3.42002 83.8468 23.6C67.6666 39.7801 52.4069 47.45 38.4869 46.41C24.2765 45.3401 14.8268 35.24 10.4567 29.31C10.15 28.8861 9.71538 28.5718 9.21673 28.4134C8.71808 28.2549 8.18178 28.2608 7.6867 28.43C7.18119 28.5887 6.7401 28.9057 6.42858 29.3343C6.11706 29.7628 5.95158 30.2802 5.95666 30.81V105.47C5.95767 105.943 6.09251 106.407 6.34557 106.806C6.59863 107.206 6.95959 107.527 7.38683 107.73C12.8365 110.31 32.4664 118.88 52.2267 118.88C63.8165 118.88 75.4664 115.93 84.3068 107.08C84.3966 106.99 84.4767 106.91 84.5665 106.83C100.227 91.59 134.747 94.72 159.937 99.7C170.357 101.76 179.177 104.13 184.407 105.65C185.076 105.843 185.782 105.878 186.467 105.752C187.152 105.626 187.799 105.342 188.356 104.923C188.912 104.504 189.364 103.962 189.675 103.338C189.986 102.714 190.147 102.027 190.147 101.33V25.73C190.147 25.0887 190.011 24.4547 189.747 23.8701C189.483 23.2856 189.098 22.764 188.617 22.34V22.34Z" fill="#6398FF"/>
<path d="M6.45667 248.5C4.86591 248.498 3.34084 247.865 2.216 246.741C1.09117 245.616 0.458444 244.091 0.456665 242.5V26.5C0.456665 24.9087 1.08883 23.3826 2.21405 22.2574C3.33927 21.1321 4.86537 20.5 6.45667 20.5C8.04796 20.5 9.57412 21.1321 10.6993 22.2574C11.8246 23.3826 12.4567 24.9087 12.4567 26.5V242.5C12.4549 244.091 11.8222 245.616 10.6974 246.741C9.57255 247.865 8.04742 248.498 6.45667 248.5V248.5Z" fill="#3F3D56"/>
</svg>
